<?xml version="1.0" standalone="no"?>
<svg
  width="600"
  height="600"
  viewBox="0 0 600 600"
  xmlns="http://www.w3.org/2000/svg"
>
  <g transform="translate(300,300)">
    <path d="M129.2,-197.5C152.4,-186.1,145.8,-124.8,128,-82.3C110.3,-39.9,81.4,-16.2,73.4,7.6C65.5,31.4,78.5,55.3,79.3,86.9C80.2,118.4,69,157.5,49,160.5C29,163.4,0.3,130.2,-31.3,116.4C-62.8,102.6,-97.2,108.3,-107.3,94.3C-117.4,80.2,-103.2,46.5,-125.9,7.2C-148.5,-32.2,-208,-77.2,-210.2,-105.8C-212.3,-134.4,-157.3,-146.7,-112.7,-148.4C-68.1,-150,-34.1,-141,9.5,-155.7C53,-170.4,106,-208.9,129.2,-197.5Z" fill="#222211" />
  </g>
</svg>
    